<?xml version="1.0" encoding="utf-8"?>
<!-- Generator: Adobe Illustrator 27.8.1, SVG Export Plug-In . SVG Version: 6.00 Build 0)  -->
<svg version="1.1" id="Layer_1" xmlns="http://www.w3.org/2000/svg" xmlns:xlink="http://www.w3.org/1999/xlink" x="0px" y="0px"
	 viewBox="0 0 1440 600" style="enable-background:new 0 0 1440 600;" xml:space="preserve">
<style type="text/css">
	.st0{fill:none;stroke:#CDCDCD;stroke-width:3;stroke-linecap:round;stroke-linejoin:round;stroke-dasharray:1.000000e-02,7;}
	.st1{fill:none;stroke:#188038;stroke-width:30;stroke-linecap:round;}
	.st2{fill:none;stroke:url(#SVGID_1_);stroke-width:30;stroke-linecap:round;}
	.st3{fill:none;stroke:#0D652D;stroke-width:30;stroke-linecap:round;}
	.st4{fill:none;stroke:url(#SVGID_00000060028674922569361070000018287756097100423611_);stroke-width:30;stroke-linecap:round;}
	.st5{fill:#FFFFFF;filter:url(#Adobe_OpacityMaskFilter);}
	.st6{mask:url(#mask3_2945_1883_00000095326952229670955110000005857003861245076649_);}
	.st7{fill:#FFFFFF;filter:url(#Adobe_OpacityMaskFilter_00000067236472091206278850000000751408765233871757_);}
	.st8{mask:url(#mask4_2945_1883_00000175305797268118914590000014296694760978636474_);}
	.st9{fill:none;stroke:url(#SVGID_00000043445614526555732000000013674822419202584215_);stroke-width:30;stroke-linecap:round;}
	.st10{fill:none;stroke:#4185F3;stroke-width:30;stroke-linecap:round;}
	.st11{fill:none;stroke:url(#SVGID_00000039135279208979776100000005243337384844545723_);stroke-width:30;stroke-linecap:round;}
	.st12{fill:none;stroke:#1967D1;stroke-width:30;stroke-linecap:round;}
	.st13{fill:none;stroke:#174DA5;stroke-width:30;stroke-linecap:round;}
</style>
<path class="st0" d="M-21.5-335C153.2-335,295-193.2,295-18.5S153.2,298-21.5,298S-338,156.2-338-18.5S-196.2-335-21.5-335z"/>
<path class="st1" d="M184.8,221.5c-0.3,0.2-0.5,0.4-0.8,0.6"/>
<linearGradient id="SVGID_1_" gradientUnits="userSpaceOnUse" x1="177.1468" y1="583.8306" x2="320.1858" y2="611.6558" gradientTransform="matrix(1 0 0 -1 0 602)">
	<stop  offset="0" style="stop-color:#34A853"/>
	<stop  offset="0.5" style="stop-color:#47B063"/>
	<stop  offset="1" style="stop-color:#5BB974"/>
</linearGradient>
<path class="st2" d="M255.9-171C280.8-125.7,295-73.8,295-18.5c0,76.6-27.3,146.9-72.7,201.7"/>
<path class="st1" d="M229.2,174.7c-0.2,0.3-0.4,0.5-0.6,0.8"/>
<path class="st3" d="M223,182.4c-0.2,0.3-0.4,0.5-0.6,0.8"/>
<linearGradient id="SVGID_00000070086154825461356820000016499992586351383720_" gradientUnits="userSpaceOnUse" x1="212.427" y1="402.4682" x2="355.419" y2="430.2841" gradientTransform="matrix(1 0 0 -1 0 602)">
	<stop  offset="0" style="stop-color:#34A853"/>
	<stop  offset="0.5" style="stop-color:#47B063"/>
	<stop  offset="1" style="stop-color:#5BB974"/>
</linearGradient>
<path style="fill:none;stroke:url(#SVGID_00000070086154825461356820000016499992586351383720_);stroke-width:30;stroke-linecap:round;" d="
	M95,275.8C59,290.1,19.6,298-21.5,298c-76.6,0-146.9-27.3-201.7-72.7"/>
<defs>
	<filter id="Adobe_OpacityMaskFilter" filterUnits="userSpaceOnUse" x="976.5" y="-412" width="636" height="649.5">
		<feColorMatrix  type="matrix" values="1 0 0 0 0  0 1 0 0 0  0 0 1 0 0  0 0 0 1 0"/>
	</filter>
</defs>
<mask maskUnits="userSpaceOnUse" x="976.5" y="-412" width="636" height="649.5" id="mask3_2945_1883_00000095326952229670955110000005857003861245076649_">
	<path class="st5" d="M934.5-454h720v720h-720V-454z"/>
</mask>
<g class="st6">
	<defs>
		
			<filter id="Adobe_OpacityMaskFilter_00000164492770585531842660000008283293869390263427_" filterUnits="userSpaceOnUse" x="976.5" y="-412" width="636" height="649.5">
			<feColorMatrix  type="matrix" values="1 0 0 0 0  0 1 0 0 0  0 0 1 0 0  0 0 0 1 0"/>
		</filter>
	</defs>
	
		<mask maskUnits="userSpaceOnUse" x="976.5" y="-412" width="636" height="649.5" id="mask4_2945_1883_00000175305797268118914590000014296694760978636474_">
		<path style="fill:#FFFFFF;filter:url(#Adobe_OpacityMaskFilter_00000164492770585531842660000008283293869390263427_);" d="
			M1294.5-381.5C1135.7-381.5,1007-252.8,1007-94s128.7,287.5,287.5,287.5S1582,64.8,1582-94S1453.3-381.5,1294.5-381.5z"/>
	</mask>
	<g class="st8">
		<path class="st0" d="M1294.5-410.5c174.7,0,316.5,141.8,316.5,316.5c0,174.7-141.8,316.5-316.5,316.5S978,80.7,978-94
			C978-268.7,1119.8-410.5,1294.5-410.5z"/>
		
			<linearGradient id="SVGID_00000041261508752853793310000008404014034167176599_" gradientUnits="userSpaceOnUse" x1="1528.4261" y1="477.9693" x2="1671.4161" y2="505.7852" gradientTransform="matrix(1 0 0 -1 0 602)">
			<stop  offset="0" style="stop-color:#34A853"/>
			<stop  offset="0.5" style="stop-color:#47B063"/>
			<stop  offset="1" style="stop-color:#5BB974"/>
		</linearGradient>
		
			<path style="fill:none;stroke:url(#SVGID_00000041261508752853793310000008404014034167176599_);stroke-width:30;stroke-linecap:round;" d="
			M1411,200.3c-36.1,14.3-75.4,22.2-116.5,22.2c-76.6,0-146.9-27.3-201.7-72.7"/>
		<path class="st1" d="M1101.3,156.7c-0.3-0.2-0.5-0.4-0.8-0.6"/>
		<path class="st3" d="M1093.6,150.5c-0.2-0.2-0.5-0.4-0.8-0.6"/>
		<path class="st0" d="M1294.5-359c146.2,0,265,118.7,265,265c0,146.3-118.8,265-265,265s-265-118.7-265-265
			C1029.5-240.3,1148.2-359,1294.5-359z"/>
		<path class="st10" d="M1132.8,115.9c-0.2-0.2-0.4-0.3-0.7-0.5"/>
		<path class="st10" d="M1415.6,141.8c-0.2,0.1-0.5,0.3-0.7,0.4"/>
		
			<linearGradient id="SVGID_00000061456848779157502570000002960333959972607617_" gradientUnits="userSpaceOnUse" x1="1398.8268" y1="446.0051" x2="1196.3868" y2="447.6591" gradientTransform="matrix(1 0 0 -1 0 602)">
			<stop  offset="0" style="stop-color:#4285F4"/>
			<stop  offset="0.5" style="stop-color:#5491F5"/>
			<stop  offset="1" style="stop-color:#669DF6"/>
		</linearGradient>
		
			<path style="fill:none;stroke:url(#SVGID_00000061456848779157502570000002960333959972607617_);stroke-width:30;stroke-linecap:round;" d="
			M1327.7,168.9c-10.9,1.4-22,2.1-33.2,2.1c-46.3,0-89.8-11.9-127.7-32.8"/>
		<path class="st12" d="M1191.6,150.2c-0.3-0.1-0.5-0.2-0.8-0.3"/>
		<path class="st13" d="M1167.6,138.6c-0.2-0.1-0.5-0.3-0.7-0.4"/>
	</g>
</g>
</svg>
